<svg id="Layer_3" enable-background="new 0 0 64 64" height="48" viewBox="0 0 64 64" width="48" xmlns="http://www.w3.org/2000/svg"><g><path d="m55 62h-34c-3.314 0-6-2.686-6-6 0-3.314 2.686-6 6-6h34c3.314 0 6 2.686 6 6 0 3.314-2.686 6-6 6z" fill="#534f44"/><g><path d="m33 50h2v3h-2z" fill="#7f786b"/></g><g><path d="m29 50h2v3h-2z" fill="#7f786b"/></g><g><path d="m25 50h2v3h-2z" fill="#7f786b"/></g><g><path d="m45 50h2v3h-2z" fill="#7f786b"/></g><g><path d="m41 50h2v3h-2z" fill="#7f786b"/></g><g><path d="m53 50h2v3h-2z" fill="#7f786b"/></g><g><path d="m37 50h2v3h-2z" fill="#7f786b"/></g><g><path d="m21 50h2v3h-2z" fill="#7f786b"/></g><g><path d="m33 59h2v3h-2z" fill="#7f786b"/></g><g><path d="m29 59h2v3h-2z" fill="#7f786b"/></g><g><path d="m25 59h2v3h-2z" fill="#7f786b"/></g><g><path d="m45 59h2v3h-2z" fill="#7f786b"/></g><g><path d="m41 59h2v3h-2z" fill="#7f786b"/></g><g><path d="m37 59h2v3h-2z" fill="#7f786b"/></g><g><path d="m21 59h2v3h-2z" fill="#7f786b"/></g><g fill="#7f786b"><path d="m59.887 59.473-2.475-2.475-1.415 1.415 2.475 2.475c.548-.39 1.026-.868 1.415-1.415z"/><path d="m57.646 56.999h3.265c.054-.326.089-.658.089-.999 0-.342-.035-.674-.09-1h-3.264z"/><path d="m58.472 51.112-2.623 2.623 1.415 1.415 2.624-2.624c-.391-.546-.869-1.024-1.416-1.414z"/><path d="m16.112 59.472c.389.547.867 1.025 1.414 1.415l2.566-2.566-1.415-1.415z"/><path d="m15 56c0 .341.035.673.09.999h3.91v-2h-3.91c-.055.327-.09.659-.09 1.001z"/><path d="m16.113 52.527 2.565 2.565 1.415-1.415-2.565-2.565c-.548.39-1.026.868-1.415 1.415z"/></g><g><path d="m53 59h2v3h-2z" fill="#7f786b"/></g><g><path d="m49 50h2v3h-2z" fill="#7f786b"/></g><g><path d="m49 59h2v3h-2z" fill="#7f786b"/></g><path d="m55 59h-34c-1.657 0-3-1.343-3-3 0-1.657 1.343-3 3-3h34c1.657 0 3 1.343 3 3 0 1.657-1.343 3-3 3z" fill="#fff"/><g><path d="m21 55h4v2h-4z" fill="#7f786b"/></g><g><path d="m27 55h6v2h-6z" fill="#7f786b"/></g><g><path d="m35 55h6v2h-6z" fill="#7f786b"/></g><g><path d="m43 55h6v2h-6z" fill="#7f786b"/></g><g><path d="m51 55h4v2h-4z" fill="#7f786b"/></g><g><path d="m26 57.999c-1.103 0-2-.897-2-2s.897-2 2-2 2 .897 2 2-.897 2-2 2zm0-2.001v.002z" fill="#625d51"/></g><g><path d="m34 57.999c-1.103 0-2-.897-2-2s.897-2 2-2 2 .897 2 2-.897 2-2 2zm0-2.001v.002z" fill="#625d51"/></g><g><path d="m42 57.999c-1.103 0-2-.897-2-2s.897-2 2-2 2 .897 2 2-.897 2-2 2zm0-2.001v.002z" fill="#625d51"/></g><g><path d="m50 57.999c-1.103 0-2-.897-2-2s.897-2 2-2 2 .897 2 2-.897 2-2 2zm0-2.001v.002z" fill="#625d51"/></g><path d="m27 46h22v4h-22z" fill="#9e968d"/><path d="m50 32v-2c0-2.209 1.791-4 4-4h2v3h-2c-.552 0-1 .448-1 1v2" fill="#cbc3b6"/><path d="m48 36v-4h8v4" fill="#625d51"/><path d="m60 46h-16v-10h13c2.761 0 5 2.239 5 5v3c0 1.105-.895 2-2 2z" fill="#f7d881"/><path d="m44 46h-22c-1.105 0-2-.895-2-2 0-1.105.895-2 2-2h22z" fill="#625d51"/><path d="m44 42h-22v-12c0-5.523 4.477-10 10-10h10c1.105 0 2 .895 2 2z" fill="#f2c351"/><g><path d="m17.19-3.928h2v20.61h-2z" fill="#e7e4dd" transform="matrix(.274 -.962 .962 .274 7.066 22.119)"/></g><path d="m13 44v5l3-4v-5l-4-3h-6l-4 3v5l3 4v-5l2-2h4z" fill="#f2c351"/><path d="m30.781 16.219 2.219-2.219-1-4-4-2-1 2h-3l-.8 1.6 5.222 2.611c.956.478 1.758 1.173 2.359 2.008z" fill="#f2c351"/><path d="m24.929 22.929c1.81-1.81 4.31-2.929 7.071-2.929 0-2.451-1.385-4.693-3.578-5.789l-18.422-9.211-.092.028 2.092 6.972 13 11z" fill="#f7d881"/><path d="m29 35h9c1.105 0 2-.895 2-2v-8c0-1.105-.895-2-2-2h-13.136c-1.77 1.804-2.864 4.273-2.864 7v12h4v-4c0-1.657 1.343-3 3-3z" fill="#c7e2fc"/><path d="m11 32 1-20-2.416-8.054c-.347-1.155-1.41-1.946-2.616-1.946-1.175 0-2.219.752-2.59 1.867-1.555 4.663-1.775 9.666-.637 14.447l3.259 13.686" fill="#f2c351"/><g><path d="m6.5 7.998c-.827 0-1.5-.673-1.5-1.499 0-.827.673-1.5 1.5-1.5s1.5.673 1.5 1.5c0 .826-.673 1.499-1.5 1.499zm0-1.999c-.276 0-.5.224-.5.5 0 .275.224.499.5.499.275 0 .5-.224.5-.499 0-.276-.225-.5-.5-.5z" fill="#625d51"/></g><g><path d="m27.5 18.998c-.827 0-1.5-.673-1.5-1.499 0-.827.673-1.5 1.5-1.5s1.5.673 1.5 1.5c0 .826-.673 1.499-1.5 1.499zm0-1.999c-.276 0-.5.224-.5.5 0 .275.224.499.5.499.275 0 .5-.224.5-.499 0-.276-.225-.5-.5-.5z" fill="#625d51"/></g><g><path d="m35 37.999h4.999v1.999h-4.999z" fill="#625d51"/></g><g><path d="m46 37.999h2v5.999h-2z" fill="#625d51"/></g><g><path d="m49 37.999h2v5.999h-2z" fill="#625d51"/></g><g><path d="m52 37.999h2v5.999h-2z" fill="#625d51"/></g><path d="m6 54-4 3 3 3v2l7-1-2-3 2-3z" fill="#9e968d"/><path d="m12 37h-6v-3c0-1.657 1.343-3 3-3 1.657 0 3 1.343 3 3z" fill="#534f44"/><path d="m22 30v12h4v-4c0-1.657 1.343-3 3-3h6.948c.464-1.36.728-2.813.728-4.331 0-2.854-.898-5.494-2.417-7.669h-9.395c-1.77 1.804-2.864 4.273-2.864 7z" fill="#ebf7fe"/></g></svg>