<svg xmlns="http://www.w3.org/2000/svg" height="601pt" version="1.1" viewBox="0 -129 601.33754 601" width="601pt">
<g id="surface1">
<path d="M 549.570312 5.832031 C 547.851562 2.320312 544.265625 0.0859375 540.351562 0.0976562 L 408.089844 0.0976562 C 402.433594 0.0976562 397.84375 4.6875 397.84375 10.34375 L 397.84375 161.863281 L 379.402344 174.15625 L 316.296875 174.15625 L 332.277344 90.148438 L 393.746094 21.40625 C 397.484375 17.15625 397.066406 10.679688 392.816406 6.949219 C 390.949219 5.3125 388.554688 4.410156 386.0625 4.402344 L 300.519531 4.402344 C 298.683594 4.402344 296.871094 4.890625 295.292969 5.835938 L 243.046875 36.570312 L 34.152344 36.570312 C 29.53125 36.34375 25.332031 39.242188 23.90625 43.636719 L 0.550781 116.375 C -0.660156 119.929688 0.160156 123.855469 2.699219 126.621094 L 58.945312 188.089844 L 58.945312 269.539062 C 58.945312 275.191406 63.535156 279.78125 69.191406 279.78125 L 101.972656 279.78125 C 107.433594 320.15625 144.59375 348.453125 184.957031 342.992188 C 217.84375 338.546875 243.710938 312.679688 248.167969 279.78125 L 376.433594 279.78125 C 381.894531 320.15625 419.050781 348.453125 459.417969 342.992188 C 492.304688 338.546875 518.171875 312.679688 522.628906 279.78125 L 590.757812 279.78125 C 596.410156 279.78125 601 275.191406 601 269.539062 L 601 112.789062 C 601.011719 111.234375 600.652344 109.6875 599.976562 108.285156 Z M 21.859375 117.09375 L 41.527344 57.265625 L 245.914062 57.265625 C 247.746094 57.265625 249.558594 56.773438 251.136719 55.828125 L 303.386719 25.09375 L 363.011719 25.09375 L 315.066406 78.878906 C 313.816406 80.265625 312.964844 81.964844 312.605469 83.796875 L 295.394531 174.464844 L 73.695312 174.464844 Z M 175.53125 323.628906 C 146.058594 323.691406 122.113281 299.832031 122.054688 270.355469 C 121.992188 240.882812 145.851562 216.941406 175.328125 216.878906 C 204.800781 216.816406 228.742188 240.675781 228.804688 270.152344 C 228.804688 270.183594 228.804688 270.222656 228.804688 270.253906 C 228.753906 299.789062 204.761719 323.691406 175.222656 323.632812 C 175.152344 323.632812 175.089844 323.632812 175.019531 323.632812 C 175.019531 323.628906 175.53125 323.628906 175.53125 323.628906 Z M 449.992188 323.628906 C 420.515625 323.628906 396.613281 299.726562 396.613281 270.253906 C 396.613281 240.777344 420.515625 216.878906 449.992188 216.878906 C 479.464844 216.878906 503.367188 240.777344 503.367188 270.253906 C 503.316406 299.789062 479.324219 323.691406 449.785156 323.628906 C 449.683594 323.628906 449.582031 323.628906 449.480469 323.628906 Z M 581.023438 259.601562 L 522.523438 259.601562 C 516.664062 219.285156 479.230469 191.359375 438.90625 197.230469 C 406.605469 201.929688 381.226562 227.296875 376.535156 259.601562 L 248.066406 259.601562 C 242.203125 219.285156 204.769531 191.359375 164.445312 197.230469 C 132.144531 201.929688 106.769531 227.296875 102.074219 259.601562 L 79.433594 259.601562 L 79.433594 194.75 L 382.476562 194.75 C 384.484375 194.730469 386.441406 194.125 388.113281 193.007812 L 411.265625 177.539062 C 513.714844 172.621094 527.238281 235.730469 527.75 238.289062 C 528.609375 243.261719 532.953125 246.867188 537.996094 246.792969 L 580.714844 246.792969 Z M 581.023438 226.304688 L 545.472656 226.304688 C 537.894531 205.8125 509.921875 154.589844 418.335938 156.742188 L 418.335938 20.585938 L 534 20.585938 L 580.511719 115.148438 Z M 581.023438 226.304688 " style=" stroke:none;fill-rule:nonzero;fill:rgb(0%,0%,0%);fill-opacity:1;" />
<path d="M 449.480469 237.164062 C 431.203125 237.164062 416.386719 251.976562 416.386719 270.253906 C 416.386719 288.53125 431.203125 303.34375 449.480469 303.34375 C 467.753906 303.34375 482.570312 288.53125 482.570312 270.253906 C 482.570312 251.976562 467.753906 237.164062 449.480469 237.164062 Z M 449.480469 282.855469 C 442.523438 282.855469 436.878906 277.210938 436.878906 270.253906 C 436.878906 263.296875 442.523438 257.652344 449.480469 257.652344 C 456.433594 257.652344 462.078125 263.296875 462.078125 270.253906 C 462.078125 277.210938 456.433594 282.855469 449.480469 282.855469 Z M 449.480469 282.855469 " style=" stroke:none;fill-rule:nonzero;fill:rgb(0%,0%,0%);fill-opacity:1;" />
<path d="M 175.019531 237.164062 C 156.742188 237.277344 142.019531 252.183594 142.132812 270.457031 C 142.246094 288.734375 157.152344 303.457031 175.429688 303.34375 C 193.625 303.230469 208.316406 288.449219 208.316406 270.253906 C 208.316406 251.976562 193.5 237.164062 175.222656 237.164062 C 175.152344 237.164062 175.082031 237.164062 175.019531 237.164062 Z M 175.019531 282.855469 C 168.0625 282.742188 162.511719 277.003906 162.625 270.050781 C 162.738281 263.09375 168.472656 257.539062 175.429688 257.652344 C 182.304688 257.765625 187.824219 263.371094 187.824219 270.253906 C 187.824219 277.210938 182.179688 282.855469 175.222656 282.855469 C 175.152344 282.855469 175.082031 282.855469 175.019531 282.855469 Z M 175.019531 282.855469 " style=" stroke:none;fill-rule:nonzero;fill:rgb(0%,0%,0%);fill-opacity:1;" />
<path d="M 509.410156 35.542969 L 457.46875 35.542969 C 451.816406 35.542969 447.226562 40.132812 447.226562 45.789062 L 447.226562 113.710938 C 447.226562 119.367188 451.816406 123.957031 457.46875 123.957031 L 541.582031 123.957031 C 547.234375 123.96875 551.835938 119.398438 551.855469 113.742188 C 551.867188 111.5625 551.167969 109.429688 549.878906 107.667969 L 519.144531 41.488281 C 517.402344 37.714844 513.558594 35.371094 509.410156 35.542969 Z M 467.816406 103.46875 L 467.816406 56.035156 L 502.957031 56.035156 L 525.292969 103.46875 Z M 467.816406 103.46875 " style=" stroke:none;fill-rule:nonzero;fill:rgb(0%,0%,0%);fill-opacity:1;" />
</g>
</svg>